<svg xmlns="http://www.w3.org/2000/svg" version="1.1" width="48px" height="48px" style="shape-rendering:geometricPrecision; text-rendering:geometricPrecision; image-rendering:optimizeQuality; fill-rule:evenodd; clip-rule:evenodd">
<g><path style="opacity:0.949" fill="#878f97" d="M 13.5,8.5 C 11.5,8.5 9.5,8.5 7.5,8.5C 7.83333,6.5 8.16667,4.5 8.5,2.5C 15.7597,0.353779 22.4264,1.35378 28.5,5.5C 29.4287,6.68884 29.762,8.02218 29.5,9.5C 24.1203,9.67571 18.787,9.34238 13.5,8.5 Z"/></g>
<g><path style="opacity:0.767" fill="#878f96" d="M 28.5,2.5 C 30.337,2.63945 30.6704,3.30612 29.5,4.5C 28.7025,4.04311 28.3691,3.37644 28.5,2.5 Z"/></g>
<g><path style="opacity:0.767" fill="#878f96" d="M 30.5,6.5 C 32.337,6.63945 32.6704,7.30612 31.5,8.5C 30.7025,8.04311 30.3691,7.37644 30.5,6.5 Z"/></g>
<g><path style="opacity:0.919" fill="#d33901" d="M 7.5,8.5 C 9.5,8.5 11.5,8.5 13.5,8.5C 13.5,10.5 13.5,12.5 13.5,14.5C 10.8333,14.5 8.16667,14.5 5.5,14.5C 5.02539,11.9179 5.69206,9.91791 7.5,8.5 Z"/></g>
<g><path style="opacity:0.767" fill="#878f96" d="M 23.5,10.5 C 25.337,10.6395 25.6704,11.3061 24.5,12.5C 23.7025,12.0431 23.3691,11.3764 23.5,10.5 Z"/></g>
<g><path style="opacity:1" fill="#aba4a1" d="M 5.5,14.5 C 8.16667,14.5 10.8333,14.5 13.5,14.5C 13.4326,15.9587 13.7659,17.2921 14.5,18.5C 11.1667,18.5 7.83333,18.5 4.5,18.5C 5.23411,17.2921 5.56745,15.9587 5.5,14.5 Z"/></g>
<g><path style="opacity:0.891" fill="#a70f0e" d="M 44.5,20.5 C 44.5654,20.0618 44.3988,19.7284 44,19.5C 39.5378,21.3164 35.0378,22.9831 30.5,24.5C 30.5,23.1667 30.5,21.8333 30.5,20.5C 26.4299,21.3559 22.4299,22.5226 18.5,24C 13.1771,24.4994 7.84372,24.666 2.5,24.5C 1.95691,24.44 1.62358,24.1067 1.5,23.5C 2.32496,22.6143 3.32496,22.281 4.5,22.5C 7.83333,22.5 11.1667,22.5 14.5,22.5C 20.3914,20.4248 26.3914,18.7582 32.5,17.5C 32.3433,18.8734 32.51,20.2068 33,21.5C 36.8757,19.2637 41.0424,17.9303 45.5,17.5C 45.7373,18.791 45.404,19.791 44.5,20.5 Z"/></g>
<g><path style="opacity:0.953" fill="#d33a01" d="M 4.5,18.5 C 7.83333,18.5 11.1667,18.5 14.5,18.5C 14.5,19.8333 14.5,21.1667 14.5,22.5C 11.1667,22.5 7.83333,22.5 4.5,22.5C 4.5,21.1667 4.5,19.8333 4.5,18.5 Z"/></g>
<g><path style="opacity:1" fill="#c33c01" d="M 44.5,20.5 C 44.5,24.1667 44.5,27.8333 44.5,31.5C 40.5358,32.9952 36.5358,34.4952 32.5,36C 33.7112,36.8928 33.7112,37.7261 32.5,38.5C 31.1667,35.8333 29.8333,35.8333 28.5,38.5C 26.5879,38.5123 24.5879,38.179 22.5,37.5C 18.3997,39.1922 14.3997,40.8589 10.5,42.5C 7.83333,42.5 5.16667,42.5 2.5,42.5C 2.5,36.5 2.5,30.5 2.5,24.5C 7.84372,24.666 13.1771,24.4994 18.5,24C 22.4299,22.5226 26.4299,21.3559 30.5,20.5C 30.5,21.8333 30.5,23.1667 30.5,24.5C 35.0378,22.9831 39.5378,21.3164 44,19.5C 44.3988,19.7284 44.5654,20.0618 44.5,20.5 Z"/></g>
<g><path style="opacity:1" fill="#fe8800" d="M 4.5,26.5 C 5.97782,26.238 7.31116,26.5713 8.5,27.5C 7.83333,27.8333 7.16667,28.1667 6.5,28.5C 5.28665,28.2528 4.61998,27.5862 4.5,26.5 Z"/></g>
<g><path style="opacity:1" fill="#fe8800" d="M 11.5,26.5 C 12.9778,26.238 14.3112,26.5713 15.5,27.5C 14.8333,27.8333 14.1667,28.1667 13.5,28.5C 12.2867,28.2528 11.62,27.5862 11.5,26.5 Z"/></g>
<g><path style="opacity:1" fill="#b43402" d="M 44.5,31.5 C 44.5,35.1667 44.5,38.8333 44.5,42.5C 33.1667,42.5 21.8333,42.5 10.5,42.5C 14.3997,40.8589 18.3997,39.1922 22.5,37.5C 24.5879,38.179 26.5879,38.5123 28.5,38.5C 29.8333,35.8333 31.1667,35.8333 32.5,38.5C 33.7112,37.7261 33.7112,36.8928 32.5,36C 36.5358,34.4952 40.5358,32.9952 44.5,31.5 Z"/></g>
</svg>
